<svg width="169" height="169" viewBox="0 0 169 169" fill="none" xmlns="http://www.w3.org/2000/svg">
<path d="M84.4462 168.892C131.085 168.892 168.892 131.085 168.892 84.4462C168.892 37.8079 131.085 0 84.4462 0C37.8078 0 0 37.8079 0 84.4462C0 131.085 37.8078 168.892 84.4462 168.892Z" fill="#15CE00"/>
<path d="M76.078 116.66C74.1782 116.663 72.3289 116.049 70.8089 114.909L70.7147 114.838L50.8686 99.6566C49.9495 98.9519 49.1781 98.0731 48.5986 97.0703C48.0191 96.0676 47.6428 94.9605 47.4911 93.8123C47.3394 92.6641 47.4154 91.4972 47.7147 90.3784C48.014 89.2595 48.5307 88.2106 49.2353 87.2914C49.94 86.3723 50.8188 85.6009 51.8216 85.0214C52.8244 84.4419 53.9314 84.0656 55.0796 83.9139C56.2279 83.7622 57.3947 83.8382 58.5135 84.1375C59.6324 84.4368 60.6813 84.9535 61.6005 85.6581L74.4551 95.5157L104.831 55.8866C105.536 54.9679 106.414 54.1968 107.416 53.6175C108.419 53.0382 109.525 52.6621 110.673 52.5105C111.821 52.3589 112.987 52.4348 114.106 52.734C115.224 53.0331 116.273 53.5497 117.191 54.254L117.194 54.2559L117.005 54.5177L117.199 54.2559C119.053 55.6805 120.265 57.7823 120.571 60.0999C120.877 62.4176 120.25 64.762 118.83 66.6184L83.1006 113.21C82.274 114.284 81.2112 115.152 79.9947 115.749C78.7782 116.345 77.4406 116.653 76.0857 116.65L76.078 116.66Z" fill="white"/>
</svg>
